<svg xmlns="http://www.w3.org/2000/svg" xmlns:xlink="http://www.w3.org/1999/xlink" width="161" height="27" viewBox="0 0 161 27">
    <defs>
        <path id="fbccdz99ga" d="M0.064 0.062L8.553 0.062 8.553 18.904 0.064 18.904z"/>
        <path id="selpdtddxc" d="M0 26.927L160.818 26.927 160.818 0 0 0z"/>
    </defs>
    <g fill="none" fill-rule="evenodd">
        <g>
            <g>
                <g>
                    <g transform="translate(-140 -37) translate(140 37)">
                        <path fill="#000" d="M43.646 21.16c0 .073-.013.145-.026.256H39.66c-.009-.2-.028-.41-.028-.621-.002-2.753 0-5.506-.004-8.261 0-.327-.017-.657-.058-.981-.172-1.39-1.02-2.219-2.272-2.237-1.302-.017-2.249.821-2.455 2.193-.052.342-.06.692-.06 1.038-.005 2.733-.003 5.469-.003 8.204v.677h-4.027v-9.186c-.002-.256.004-.514-.028-.766-.17-1.332-.996-2.133-2.218-2.157-1.289-.029-2.246.77-2.48 2.098-.065.357-.085.727-.085 1.09-.006 2.753-.004 5.506-.004 8.26v.665h-3.97V6.06h3.888v1.65c1.104-1.486 2.466-2.099 4.127-2.05 1.674.05 3.016.713 3.935 2.184.056-.024.116-.031.144-.066 1.256-1.692 2.973-2.224 4.979-2.094 2.009.13 3.592 1.254 4.193 3.112.22.685.383 1.42.391 2.136.041 3.41.02 6.819.02 10.228M9.603 12.288c-.96.005-1.259.309-1.261 1.268-.002.42.009.838-.002 1.258-.017.639-.396 1.05-.938 1.042-.53-.01-.9-.396-.904-1.014-.013-1.512-.013-3.024 0-4.536.007-.65.305-.944.955-1.01.865-.087 1.121-.371 1.123-1.258.003-.654-.006-1.31.003-1.967.008-.606.322-.956.903-1.009.25-.022.506-.033.751.004.123.018.293.136.33.248.748 2.293 1.482 4.591 2.245 6.972-1.131 0-2.168-.002-3.205.002m10.45 8.46c-.777-2.229-1.556-4.46-2.335-6.687-1.564-4.478-3.13-8.953-4.697-13.428-.08-.228-.086-.497-.454-.493-1.757.013-3.513-.009-5.27.013-.71.01-1.04.383-1.05 1.106-.011.82.001 1.64-.005 2.46-.006.715-.297 1.028-.99 1.1-.834.085-1.08.361-1.08 1.223-.002 1.68 0 3.355-.002 5.034 0 .867-.224 1.116-1.084 1.212-.69.08-.975.399-.984 1.11-.004.438.005.875-.002 1.313-.008.775-.297 1.088-1.056 1.16-.755.07-1.035.376-1.04 1.162-.006 1.075-.006 2.151 0 3.228.005.81.34 1.158 1.148 1.177.626.016 1.254.005 1.882.003 1.1-.003 1.362-.267 1.368-1.38.005-.896.315-1.218 1.197-1.22 1.435-.005 2.87-.002 4.303-.002h.613V16.1c1.048 0 2.048.017 3.046-.011.358-.011.495.131.598.453.377 1.175.777 2.346 1.169 3.517.462 1.38.462 1.38 1.921 1.38h3.016c-.088-.286-.144-.49-.213-.691M57.407 16.204c-.672 1.394-1.864 2.009-3.372 2.02-2.035-.018-3.601-1.464-3.79-3.64-.076-.853-.005-1.762.21-2.589.387-1.497 1.4-2.442 2.937-2.672 1.678-.25 3.074.28 3.916 1.84.884 1.64.905 3.366.099 5.04m3.997-5.825c-1.525-4.539-6.05-5.5-9.103-4.21-.708.297-1.325.813-2.03 1.262V.173h-3.977v21.246h3.77v-1.423c.107.061.16.079.193.114 2.662 2.718 7.795 2.132 10.078-1.092 1.9-2.679 2.082-5.624 1.07-8.64M145.407 17.574c-2.21 1.512-5.095.409-5.796-2.202-.413-1.536-.345-3.042.527-4.419.897-1.418 2.24-1.864 3.82-1.63 1.419.212 2.385 1.06 2.86 2.418.22.626.286 1.305.355 1.635-.054 1.886-.437 3.287-1.766 4.198m3.027-10.304c-2.298-1.985-6.607-2.38-9 .162-.026.027-.088.018-.159.029V6.064h-3.752v20.863h4.002v-6.979c2.803 2.972 8.487 2.425 10.647-1.716.599-1.149.923-2.374 1.007-3.654.183-2.854-.518-5.386-2.745-7.308M71.002 8.99c1.794.018 3.085 1.248 3.173 3.07h-6.458c.103-1.822 1.471-3.087 3.285-3.07m6.747 5.791c.392 0 .564-.103.534-.516-.046-.655-.028-1.313-.108-1.964-.239-1.954-.878-3.755-2.44-5.011-2.414-1.941-5.155-2.173-7.9-.967-4.794 2.107-5.418 8.607-3.064 12.185 2.464 3.742 7.855 4.125 10.904 2.15.863-.561 1.637-1.235 2.158-2.218-.882-.678-1.747-1.343-2.616-2.013-1.429 1.713-3.189 2.267-5.237 1.597-1.463-.479-2.263-1.586-2.44-3.252h.695c3.171 0 6.343-.006 9.514.009M101.452 17.024c-.043 1.874-.912 3.276-2.56 4.04-2.716 1.26-5.36 1.086-7.789-.792-.434-.335-.78-.784-1.224-1.237l2.42-2.181c.966 1.127 2.15 1.72 3.602 1.652.35-.015.723-.083 1.037-.232.87-.412.992-1.486.202-2.031-.54-.374-1.174-.608-1.779-.88-.75-.339-1.53-.615-2.27-.98-1.83-.906-2.76-2.414-2.607-4.489.152-2.061 1.372-3.333 3.257-3.889 2.343-.69 4.578-.499 6.502 1.224.357.32.647.715 1.01 1.122l-2.686 2.038c-.695-.803-1.466-1.4-2.533-1.442-.053-.003-.107-.016-.159-.016-.86-.01-1.467.368-1.603.998-.127.582.213 1.127 1.014 1.484.718.322 1.471.567 2.203.86.514.206 1.033.414 1.527.665 1.653.836 2.479 2.2 2.436 4.086M115.516 19.97c.039.133-.157.407-.312.514-1.644 1.136-3.474 1.515-5.426 1.287-2.32-.273-4.28-1.265-5.602-3.263-1.769-2.672-1.917-5.56-.581-8.423 1.29-2.762 3.604-4.152 6.588-4.4 1.833-.15 3.513.292 5.06 1.305.299.197.404.377.269.744-.349.954-.654 1.926-.992 2.937-2.653-2.184-5.344-1.506-6.543-.184-1.53 1.69-1.611 4.51-.198 6.237 1.55 1.896 3.875 1.964 6.771.176.331 1.028.676 2.041.966 3.07"/>
                        <g transform="translate(152.264 2.75)">
                            <mask id="oz6ggz5ztb" fill="#fff">
                                <use xlink:href="#fbccdz99ga"/>
                            </mask>
                            <path fill="#000" d="M8.54 18.507c-.001.105-.171.287-.279.298-1.233.137-2.472.192-3.664-.248-1.794-.66-2.595-2.116-2.818-3.922-.142-1.15-.136-2.324-.155-3.488-.024-1.492-.005-2.985-.005-4.558H.064v-3.29h1.57V.062h3.963v3.213h2.81v3.303H5.608v5.943c0 .073-.002.147 0 .22.033 2.046.56 2.569 2.582 2.562.103 0 .204.01.362.018 0 1.083.008 2.136-.011 3.186" mask="url(#oz6ggz5ztb)"/>
                        </g>
                        <path fill="#000" d="M125.923 5.673v4.092c-.377.042-.75.055-1.114.13-1.496.308-2.389 1.269-2.714 2.752-.148.67-.215 1.368-.223 2.055-.028 2.224-.011 4.445-.011 6.712h-3.96V6.051h3.84v1.93c1.024-1.505 2.364-2.31 4.182-2.308M88.59 5.677v4.088c-.387.044-.766.055-1.131.131-1.47.307-2.36 1.25-2.694 2.71-.149.65-.22 1.332-.228 2-.028 2.06-.01 4.119-.01 6.18v.633h-3.973V6.062h3.86v1.93c1.014-1.518 2.352-2.324 4.176-2.315"/>
                        <mask id="s6xri1fdzd" fill="#fff">
                            <use xlink:href="#selpdtddxc"/>
                        </mask>
                        <path fill="#000" d="M128.352 21.432L132.276 21.432 132.276 6.053 128.352 6.053zM132.633 2.283c.011 1.339-.963 2.335-2.302 2.352-1.349.018-2.358-.952-2.368-2.28-.011-1.34.97-2.346 2.297-2.355 1.354-.009 2.365.963 2.373 2.283" mask="url(#s6xri1fdzd)"/>
                    </g>
                </g>
            </g>
        </g>
    </g>
</svg>
