<svg xmlns="http://www.w3.org/2000/svg" width="163.78" height="56" viewBox="0 0 163.78 56"><defs><style>.cls-1{fill:#231f20;}.cls-2{fill:#ed1a3b;}</style></defs><title>MAU_EN_hori_CMYK</title><g id="Generell"><path class="cls-1" d="M283.85,92h3.38l2.67,7,2.83-7h3.41l2,13.17h-3.42l-1-7.58h0l-3.16,7.58h-1.37l-3-7.58h0L285,105.2h-3.41Z" transform="translate(-229.22 -79)"/><path class="cls-1" d="M304.16,102.91l-.91,2.29h-3.63L304.69,92h3.74l5,13.17h-3.65l-.86-2.29Zm2.4-6.81h0l-1.41,4.19H308Z" transform="translate(-229.22 -79)"/><path class="cls-1" d="M318.4,102.3h4.11v2.9H315V92h3.42Z" transform="translate(-229.22 -79)"/><path class="cls-1" d="M327,92h3.38l2.67,7,2.83-7h3.41l2,13.17h-3.42l-1-7.58h0l-3.16,7.58h-1.37l-3-7.58h0l-1.1,7.58h-3.4Z" transform="translate(-229.22 -79)"/><path class="cls-1" d="M356.82,98.37a7.29,7.29,0,0,1-14.58,0c0-4,3.5-6.78,7.29-6.78S356.82,94.39,356.82,98.37ZM349,89.25a1.72,1.72,0,1,1-1.71-1.71A1.7,1.7,0,0,1,349,89.25Zm-3.21,9.14a3.73,3.73,0,1,0,7.44,0,3.73,3.73,0,0,0-7.44,0Zm7.69-9.14a1.73,1.73,0,1,1-1.72-1.71A1.71,1.71,0,0,1,353.5,89.25Z" transform="translate(-229.22 -79)"/></g><g id="EN"><path class="cls-1" d="M368.23,123.45H364.8V110.27h3.43Z" transform="translate(-229.22 -79)"/><path class="cls-1" d="M376.36,123.45h-3.42V113.17H370.1v-2.9h9.09v2.9h-2.83Z" transform="translate(-229.22 -79)"/><path class="cls-1" d="M379.86,110.27H384l2.47,3.58,2.46-3.58H393l-4.86,6.85v6.33h-3.42v-6.33Z" transform="translate(-229.22 -79)"/><path class="cls-1" d="M293.12,110.27v7.41c0,1.69-.07,3.37-1.38,4.65a7.23,7.23,0,0,1-8.74,0c-1.31-1.28-1.38-3-1.38-4.65v-7.41H285v6.94c0,1.71.13,3.58,2.33,3.58s2.32-1.87,2.32-3.58v-6.94Z" transform="translate(-229.22 -79)"/><path class="cls-1" d="M295.46,110.27h3.42l6.28,8.06h0v-8.06h3.43v13.18h-3.43l-6.27-8.08h0v8.08h-3.42Z" transform="translate(-229.22 -79)"/><path class="cls-1" d="M314.39,123.45H311V110.27h3.43Z" transform="translate(-229.22 -79)"/><path class="cls-1" d="M322.67,118.27l3.2-8h3.72L324,123.45h-2.65l-5.54-13.18h3.72Z" transform="translate(-229.22 -79)"/><path class="cls-1" d="M334.4,113.17v2.2h3.86v2.9H334.4v2.27h4.07v2.91H331V110.27h7.5v2.9Z" transform="translate(-229.22 -79)"/><path class="cls-1" d="M352.06,123.45H347.8l-3.23-5.07h0v5.07h-3.42V110.27h5.12c2.6,0,4.58,1.24,4.58,4a3.56,3.56,0,0,1-2.89,3.73Zm-7.53-7.27h.33c1.12,0,2.38-.21,2.38-1.65s-1.26-1.64-2.38-1.64h-.33Z" transform="translate(-229.22 -79)"/><path class="cls-1" d="M360.75,113.66a3.62,3.62,0,0,0-2.27-.87c-.63,0-1.47.36-1.47,1.1s.93,1.06,1.52,1.26l.87.26c1.84.54,3.25,1.47,3.25,3.6a4.45,4.45,0,0,1-1.36,3.54,5.75,5.75,0,0,1-3.74,1.25,8.1,8.1,0,0,1-4.63-1.51l1.47-2.76a4.69,4.69,0,0,0,3,1.36c.8,0,1.66-.4,1.66-1.32s-1.35-1.3-2.08-1.51c-2.15-.61-3.57-1.17-3.57-3.72a4.28,4.28,0,0,1,4.55-4.42,9,9,0,0,1,4.12,1.08Z" transform="translate(-229.22 -79)"/></g><g id="Layer_1" data-name="Layer 1"><polygon class="cls-2" points="0 50.17 0 12.13 37.33 0 44.8 5.83 7.47 17.96 7.47 56 0 50.17"/><polygon class="cls-2" points="22.4 21.37 22.4 51.15 14.93 45.31 14.93 23.8 22.4 21.37"/><polygon class="cls-2" points="29.87 18.95 37.33 16.52 37.33 46.3 29.87 40.46 29.87 18.95"/></g></svg>